<svg width="107" height="12" viewBox="0 0 107 12" fill="none" xmlns="http://www.w3.org/2000/svg">
<g clip-path="url(#clip0_111_347)">
<path d="M18.0474 2.78001L18.2665 2.80501L18.4805 2.84501L18.6792 2.89001L18.8678 2.95001L19.0512 3.02001L19.2142 3.10001L19.3722 3.19001L19.5149 3.29501L19.6524 3.40501L19.7747 3.52501L19.8868 3.66001L19.9887 3.80001L20.0804 3.95501L20.162 4.12001L20.2282 4.29501L20.2893 4.48001L20.3352 4.67501L20.376 4.88001L20.4014 5.10001L20.4167 5.32501L20.4218 5.56001V5.62001V5.67501L20.4167 5.72501L20.3963 5.82501L20.376 5.91501L20.3607 5.95501L20.325 6.03001L20.3046 6.06001L20.2791 6.09001L20.2588 6.12001L20.2282 6.14501L20.2027 6.17001L20.1721 6.18501L20.1416 6.20501L20.1059 6.22001L20.0651 6.23001L20.0295 6.24001L19.948 6.25001H15.4132V6.21501H15.403V7.13501L15.4081 7.25501L15.4234 7.37501L15.4387 7.49001L15.4692 7.60001L15.5049 7.70001L15.5508 7.80001L15.6017 7.88501L15.6629 7.97501L15.7291 8.05001L15.8055 8.13001L15.8921 8.19501L15.9839 8.26001L16.0858 8.31501L16.1928 8.37001L16.31 8.41501L16.4322 8.46001L16.5698 8.49001L16.7074 8.52501L16.8602 8.55001L17.0182 8.56501L17.1812 8.58001L17.3545 8.59001L17.5379 8.59501H17.6041L17.6704 8.59001H17.7366L17.7978 8.58501H17.864L17.9863 8.57501L18.1035 8.56501L18.1595 8.56001L18.2156 8.55001L18.3226 8.53501L18.3735 8.53001L18.4245 8.52001L18.5722 8.49001L18.6181 8.47501L18.664 8.46501L18.7047 8.45001L18.7506 8.43501L18.7913 8.42001L18.8168 8.41501L18.8932 8.38501L18.9238 8.37001L18.9544 8.36001L19.0155 8.33001L19.1225 8.27501L19.1633 8.25501L19.199 8.23001L19.2856 8.18501L19.3263 8.16001L19.3722 8.13501L19.4181 8.10501L19.5149 8.04001L19.5658 8.01001L19.6168 7.97501L19.6728 7.94001L19.734 7.88001L19.8002 7.83001L19.8308 7.80501L19.8562 7.78501L19.8868 7.76501L19.9123 7.74001L19.9581 7.70501L20.0091 7.67501L20.0295 7.66001L20.0499 7.65001L20.0702 7.63501L20.1059 7.62001L20.1212 7.61501L20.1416 7.61001L20.1518 7.60501L20.1772 7.60001H20.2231L20.2741 7.60501L20.3505 7.62001L20.3709 7.63001L20.4065 7.65001L20.4269 7.66501L20.4728 7.71001L20.4881 7.73001L20.5084 7.77001L20.5135 7.79501L20.5237 7.82001L20.5288 7.85001L20.539 7.90001V7.93501V7.97001V8.00001L20.5339 8.03501L20.5288 8.06501L20.5237 8.10001L20.4931 8.20001L20.4779 8.23001L20.4575 8.26501L20.4422 8.30001L20.4218 8.33501L20.3963 8.37001L20.3709 8.40001L20.3199 8.47001L20.2537 8.53501L20.1874 8.60501L20.1059 8.67501L20.0601 8.70501L20.0193 8.74501L19.9429 8.79501L19.8664 8.85001L19.7034 8.95001L19.6168 8.99501L19.5251 9.04001L19.4333 9.08001L19.3365 9.11501L19.2397 9.15501L19.1327 9.19001L18.9187 9.25001L18.8066 9.27501L18.6894 9.30001L18.45 9.34501L18.1952 9.37501L17.9302 9.39501L17.7927 9.40001L17.65 9.40501H17.5073H17.2628L17.0233 9.39001L16.794 9.37001L16.58 9.33501L16.3711 9.30001L16.1775 9.25501L15.994 9.20001L15.8208 9.13501L15.6629 9.06001L15.51 8.98001L15.3724 8.89001L15.24 8.79001L15.1279 8.68501L15.0209 8.57001L14.924 8.44501L14.8425 8.31501L14.7712 8.17001L14.705 8.02501L14.654 7.86501L14.6183 7.69501L14.5878 7.52001L14.5725 7.33501L14.5674 7.14001V4.78501L14.5725 4.71501L14.5776 4.65501L14.5827 4.59001L14.603 4.46001L14.6234 4.39501L14.6387 4.33501L14.6795 4.21501L14.7304 4.09501L14.7916 3.98001L14.8221 3.92501L14.8578 3.86501L14.8986 3.81501L14.9393 3.76001L14.9801 3.71001L15.026 3.65501L15.1228 3.55501L15.24 3.44001L15.3928 3.32001L15.4692 3.26501L15.5559 3.21001L15.6425 3.16001L15.7291 3.11501L15.8208 3.07001L16.0144 2.99001L16.1163 2.95501L16.3303 2.89501L16.4424 2.87001L16.5596 2.84501L16.6717 2.82501L16.794 2.81001L16.9163 2.79001L17.0386 2.78001L17.166 2.77001L17.4309 2.76001H17.5685L17.808 2.76501L18.0474 2.78001V2.78001ZM17.008 3.58001L16.7991 3.61501L16.6004 3.66501L16.4068 3.73001L16.2182 3.80501L16.0399 3.89501L15.8769 4.02001L15.7393 4.15001L15.6221 4.29001L15.5253 4.44001L15.459 4.59501L15.4183 4.75501L15.403 4.93001V5.41001H19.576L19.5301 4.92001L19.4028 4.50501L19.1837 4.16001L18.878 3.89501L18.4907 3.70501L18.0067 3.59001L17.4411 3.55501L17.222 3.56001L17.008 3.58001V3.58001Z" fill="white"/>
<path d="M54.626 2.78001L54.8451 2.80501L55.0591 2.84501L55.2578 2.89001L55.4463 2.95001L55.6247 3.02001L55.7928 3.10001L55.9508 3.19001L56.0985 3.29501L56.231 3.40501L56.3533 3.52501L56.4654 3.66001L56.5724 3.80001L56.659 3.95501L56.7405 4.12001L56.8119 4.29501L56.8679 4.48001L56.9189 4.67501L56.9545 4.88001L56.98 5.10001L56.9953 5.32501L57.0004 5.56001V5.62001L56.9953 5.67501L56.9851 5.77501L56.9749 5.82501L56.9647 5.87001L56.9494 5.91501L56.9392 5.95501L56.924 5.99001L56.9036 6.03001L56.8832 6.06001L56.8322 6.12001L56.7813 6.17001L56.7151 6.20501L56.6488 6.23001L56.6081 6.24001L56.5265 6.25001L51.9816 6.25501V7.13501L51.9867 7.25501L51.9969 7.37501L52.0172 7.49001L52.0478 7.60001L52.0835 7.70001L52.1242 7.80001L52.1803 7.88501L52.2363 7.97501L52.3077 8.05001L52.3841 8.13001L52.4707 8.19501L52.5624 8.26001L52.6592 8.31501L52.7713 8.37001L52.8885 8.41501L53.0108 8.46001L53.1433 8.49001L53.286 8.52501L53.4388 8.55001L53.5968 8.56501L53.7598 8.58001L53.9331 8.59001L54.1165 8.59501H54.1827L54.249 8.59001H54.3152L54.4426 8.58501L54.5649 8.57501L54.677 8.56501L54.7381 8.56001L54.7942 8.55001L54.9521 8.53001L55.054 8.51001L55.1508 8.49001L55.1967 8.47501L55.2425 8.46501L55.2884 8.45001L55.3291 8.43501L55.3954 8.41501L55.4158 8.40501L55.4463 8.39501L55.4718 8.38501L55.5024 8.37001L55.5279 8.36001L55.5635 8.34501L55.6654 8.29501L55.7368 8.25501L55.7775 8.23001L55.8183 8.21001L55.8591 8.18501L55.9508 8.13501L56.0425 8.07501L56.1444 8.01001L56.1953 7.97501L56.2514 7.94001L56.282 7.91001L56.3176 7.88001L56.3431 7.85501L56.3788 7.83001L56.4042 7.80501L56.4348 7.78501L56.4909 7.74001L56.5163 7.72501L56.5418 7.70501L56.5622 7.69001L56.5877 7.67501L56.6081 7.66001L56.6284 7.65001L56.6488 7.63501L56.6845 7.62001L56.7456 7.60001H56.7558H56.8017H56.8271L56.8577 7.60501L56.9036 7.61501L56.9291 7.62001L56.9902 7.65001L57.0513 7.71001L57.0666 7.73001L57.087 7.77001L57.0921 7.79501L57.1023 7.82001L57.1125 7.87501L57.1176 7.90001V7.93501V8.00001L57.1125 8.03501L57.1074 8.06501L57.1023 8.10001L57.0819 8.17001L57.0717 8.20001L57.0564 8.23001L57.0361 8.26501L57.0208 8.30001L56.9749 8.37001L56.9494 8.40001L56.924 8.43501L56.8679 8.50501L56.7609 8.60501L56.6437 8.70501L56.5979 8.74501L56.445 8.85001L56.3686 8.90001L56.282 8.95001L56.1953 8.99501L56.1036 9.04001L56.0119 9.08001L55.9151 9.11501L55.8132 9.15501L55.7113 9.19001L55.4973 9.25001L55.3852 9.27501L55.268 9.30001L55.1508 9.32001L55.0285 9.34501L54.7738 9.37501L54.5088 9.39501L54.2286 9.40501H54.0859H53.8362L53.6019 9.39001L53.3726 9.37001L53.1535 9.33501L52.9548 9.30001L52.7561 9.25501L52.5726 9.20001L52.4045 9.13501L52.2363 9.06001L52.0886 8.98001L51.951 8.89001L51.8236 8.79001L51.7064 8.68501L51.5943 8.57001L51.5026 8.44501L51.416 8.31501L51.3447 8.17001L51.2835 8.02501L51.2326 7.86501L51.1918 7.69501L51.1663 7.52001L51.146 7.33501L51.1409 7.14001V4.85001L51.146 4.78501V4.71501L51.1562 4.65501L51.1613 4.59001L51.1714 4.52501L51.1969 4.39501L51.2581 4.21501L51.309 4.09501L51.3651 3.98001L51.4007 3.92501L51.4364 3.86501L51.4721 3.81501L51.5179 3.76001L51.5587 3.71001L51.6045 3.65501L51.7013 3.55501L51.7523 3.50501L51.8236 3.44001L51.895 3.38001L51.9714 3.32001L52.0478 3.26501L52.1344 3.21001L52.2211 3.16001L52.3077 3.11501L52.4045 3.07001L52.4962 3.03001L52.593 2.99001L52.6949 2.95501L52.9089 2.89501L53.1331 2.84501L53.2503 2.82501L53.3675 2.81001L53.4949 2.79001L53.6172 2.78001L53.7445 2.77001L54.0095 2.76001H54.1471L54.3916 2.76501L54.626 2.78001V2.78001ZM53.5866 3.58001L53.3777 3.61501L53.179 3.66501L52.9853 3.73001L52.7968 3.80501L52.6236 3.89501L52.4503 4.02001L52.3026 4.15001L52.1854 4.29001L52.0988 4.44001L52.0325 4.59501L51.9969 4.75501L51.9816 4.93001V5.41001H56.1546L56.1087 4.92001L55.9813 4.50501L55.7622 4.16001L55.4565 3.89501L55.0693 3.70501L54.5852 3.59001L54.0197 3.55501L53.8006 3.56001L53.5866 3.58001V3.58001Z" fill="white"/>
<path d="M103.724 0.085C103.663 0.145 103.602 0.23 103.602 0.31C103.602 0.455 103.775 0.655 104.096 0.975C105.436 2.24 106.108 3.785 106.103 5.65C106.098 7.715 105.39 9.375 104.014 10.655C103.724 10.91 103.607 11.11 103.607 11.28C103.607 11.365 103.668 11.45 103.724 11.535C103.78 11.595 103.897 11.65 103.984 11.65C104.3 11.65 104.748 11.285 105.329 10.565C106.46 9.205 106.97 7.7 107 5.655C107.026 3.605 106.373 2.215 105.089 0.78C104.631 0.265 104.244 0 103.984 0C103.897 0 103.805 0.03 103.724 0.085V0.085Z" fill="white"/>
<path d="M63.563 0.879995C64.1439 1.31 64.4445 1.91499 64.4445 2.65499C64.4445 2.99499 64.2967 3.165 64.0063 3.165C63.8076 3.165 63.6598 2.99499 63.5732 2.65499C63.5171 2.36999 63.4 2.115 63.2573 1.845C62.9923 1.395 62.437 1.185 61.5657 1.185C60.8065 1.185 60.2817 1.355 59.9658 1.725C59.6753 2.065 59.5021 2.585 59.5021 3.355V6.33C59.5021 7.105 59.6753 7.645 59.9963 7.985C60.3428 8.355 60.8727 8.55 61.6268 8.55C62.763 8.55 63.4305 8.155 63.5732 7.38C63.6343 7.095 63.6598 6.95 63.6598 6.925C63.721 6.755 63.8381 6.67 64.0063 6.67C64.2967 6.67 64.4445 6.84 64.4445 7.18C64.4445 7.9 64.154 8.44 63.5375 8.87C63.0433 9.18 62.4268 9.35 61.6166 9.35C60.6791 9.35 59.9556 9.15 59.4257 8.725C58.8346 8.325 58.5442 7.645 58.5442 6.755V3.17499C58.5442 1.28999 59.5378 0.369995 61.5759 0.369995C62.3962 0.369995 63.0331 0.539995 63.563 0.879995V0.879995Z" fill="white"/>
<path d="M7.24022 3.285C7.24022 3.005 7.41346 2.89 7.75994 2.89H9.45156C9.74199 2.89 9.88465 3.145 9.88465 3.61C10.4044 3.07 10.9648 2.745 11.5457 2.745C12.0348 2.745 12.4221 2.89 12.6819 3.175C12.9724 3.46 13.0896 3.865 13.0896 4.32C13.0896 4.635 12.9418 4.805 12.6819 4.805C12.5087 4.805 12.3915 4.69 12.3355 4.49C12.2183 4.08999 12.1622 3.895 12.1317 3.865C12.0196 3.67 11.7852 3.555 11.4947 3.555C11.1788 3.555 10.8578 3.67 10.5878 3.895C10.4146 4.01 10.1802 4.265 9.88465 4.64V8.475H11.454C11.8005 8.475 11.9788 8.62 11.9788 8.875C11.9788 9.16 11.8005 9.305 11.454 9.305H7.71918C7.3727 9.305 7.19946 9.15999 7.19946 8.90499C7.19946 8.61999 7.3727 8.505 7.71918 8.505H9.00318V8.47H9.01337V3.685H7.75994C7.41346 3.685 7.24022 3.545 7.24022 3.285V3.285Z" fill="white"/>
<path d="M49.2608 0.02L49.2914 0.03L49.3219 0.045L49.3474 0.06L49.378 0.08L49.4442 0.145L49.4595 0.175L49.4799 0.205L49.4952 0.24L49.5054 0.275L49.5257 0.355L49.5461 0.445L49.5512 0.545V0.595V9.015V9.055L49.5461 9.09V9.125L49.5257 9.19L49.5207 9.215L49.5054 9.245L49.4952 9.27L49.4646 9.315L49.4289 9.355L49.4035 9.37L49.3831 9.385L49.3576 9.4L49.3067 9.42L49.2761 9.43L49.2149 9.44L49.1793 9.445H49.1232L49.057 9.435L49.0366 9.43L49.0162 9.42L48.9958 9.415L48.9806 9.405L48.9653 9.4L48.95 9.385L48.9347 9.375L48.9041 9.35L48.8939 9.335L48.8583 9.275L48.8532 9.255L48.843 9.23L48.8379 9.21L48.8277 9.185V9.16V9.12V9.1V9.08L48.8226 9.06V9.04L48.8175 9.02V9V8.98L48.8124 8.955V8.935V8.91L48.8073 8.865V8.835L48.8022 8.815V8.785V8.73L48.7971 8.7V8.635L48.7309 8.68L48.6647 8.72L48.5984 8.765L48.4761 8.835L48.4201 8.875L48.3589 8.91L48.2519 8.97L48.201 9L48.1551 9.03L48.1042 9.055L47.9768 9.125L47.9055 9.165L47.8341 9.195L47.773 9.22L47.7475 9.23L47.7017 9.25L47.6558 9.265L47.6099 9.275L47.5131 9.305L47.3093 9.345L47.2023 9.36L47.0902 9.375L47.0342 9.385L46.917 9.395H46.8558L46.7947 9.4H46.7387L46.6775 9.405H46.4431L46.3361 9.4L46.2342 9.395L46.1323 9.385L46.0355 9.38L45.9336 9.365L45.8419 9.355L45.6534 9.32L45.4801 9.28L45.3884 9.255L45.2254 9.205L45.0623 9.145L44.9859 9.11L44.9095 9.08L44.6955 8.96L44.6292 8.92L44.5579 8.87L44.4152 8.76L44.3541 8.705L44.2929 8.64L44.2369 8.58L44.1808 8.515L44.1299 8.445L44.084 8.375L43.9974 8.23L43.9617 8.155L43.9261 8.075L43.8955 7.995L43.87 7.915L43.8446 7.825L43.8242 7.735L43.8089 7.65L43.7987 7.555L43.7834 7.46L43.7783 7.365V4.76L43.7834 4.665L43.7987 4.575L43.8089 4.485L43.8242 4.395L43.8649 4.225L43.8904 4.145L43.921 4.065L43.9516 3.99L43.9923 3.915L44.028 3.84L44.1197 3.7L44.2216 3.57L44.2726 3.51L44.3948 3.39L44.5273 3.28L44.5987 3.23L44.7974 3.11L44.8738 3.075L45.0165 3.005L45.1744 2.945L45.2508 2.92L45.419 2.87L45.5871 2.83L45.954 2.77L46.1425 2.755L46.3361 2.745H46.5654L46.6928 2.755H46.7539H46.8202L46.8813 2.765L46.9425 2.77L47.0546 2.78L47.1667 2.8L47.2227 2.805L47.3297 2.825L47.3807 2.835L47.4265 2.845L47.5692 2.885L47.615 2.9L47.6609 2.92L47.7017 2.935L47.7475 2.95L47.7883 2.97L47.8341 2.985L47.88 3.005L47.9309 3.03L48.0176 3.075L48.1653 3.155L48.2112 3.18L48.3589 3.275L48.4608 3.345L48.5067 3.38L48.7105 3.54V0.595L48.7156 0.545V0.445L48.736 0.355L48.7411 0.315L48.7564 0.275L48.7666 0.24L48.7818 0.205L48.7971 0.175L48.8175 0.145L48.8379 0.125L48.8583 0.1L48.8787 0.08L48.9041 0.06L48.9551 0.03L48.9857 0.02L49.0519 0.005L49.0825 0H49.1538L49.1895 0.005L49.2608 0.02V0.02ZM46.3565 3.615L46.224 3.63L46.0916 3.64L45.9642 3.665L45.8419 3.69L45.7247 3.715L45.5107 3.795L45.4139 3.84L45.3222 3.89L45.2203 3.965L45.1184 4.045L45.0317 4.13L44.9553 4.215L44.884 4.31L44.8279 4.41L44.777 4.51L44.7362 4.625L44.7108 4.74L44.6904 4.855L44.6853 4.985V7.245L44.6904 7.375L44.7057 7.5L44.7311 7.615L44.7668 7.73L44.8127 7.835L44.8738 7.935L44.94 8.03L45.0216 8.115L45.1082 8.195L45.2101 8.265L45.3222 8.335L45.419 8.38L45.633 8.46L45.7451 8.495L45.8572 8.525L45.9795 8.555L46.1068 8.575L46.2393 8.595L46.3769 8.61L46.6622 8.62L46.9017 8.615L47.1259 8.595L47.345 8.565L47.452 8.545L47.5539 8.515L47.7475 8.455L47.8341 8.42L47.9055 8.37L47.987 8.315L48.0634 8.26L48.1449 8.2L48.2316 8.14L48.3131 8.075L48.4048 8.01L48.4914 7.935L48.5831 7.86L48.7666 7.7V4.405L48.6596 4.325L48.5526 4.255L48.4507 4.185L48.3488 4.12L48.2519 4.06L48.1602 4.005L48.0736 3.95L47.9921 3.905L47.8392 3.835L47.773 3.805L47.6762 3.77L47.4826 3.71L47.3807 3.685L47.1768 3.645L47.0698 3.63L46.9628 3.62L46.8558 3.615L46.6367 3.61H46.4941L46.3565 3.615V3.615Z" fill="white"/>
<path d="M99.6934 6.02002C99.1889 5.89502 101.253 3.50502 97.589 0.64502C97.589 0.64502 98.068 2.14502 95.6478 5.49002C93.2224 8.83002 96.7229 10.82 96.7229 10.82C96.7229 10.82 95.0822 9.96002 96.9929 6.90002C97.3343 6.34502 97.7827 5.84502 98.338 4.71002C98.338 4.71002 98.8272 5.39502 98.5724 6.87002C98.1903 9.10502 100.239 8.46502 100.269 8.49502C100.988 9.32002 99.6781 10.775 99.5966 10.82C99.515 10.865 103.336 8.57002 100.621 5.11002C100.437 5.29002 100.198 6.15002 99.6934 6.02002V6.02002Z" fill="white"/>
<path d="M68.9182 2.68505L69.015 2.69005L69.1067 2.70005L69.1984 2.70505L69.2901 2.71505L69.4634 2.73505L69.5449 2.74505L69.6264 2.76505L69.7029 2.77505L69.7742 2.79505L69.8506 2.81005L69.9933 2.85005L70.1258 2.89005L70.3092 2.96505L70.3703 2.99505L70.4264 3.02005L70.4773 3.05005L70.5334 3.08005L70.5945 3.12005L70.6455 3.16505L70.7015 3.21005L70.8034 3.31005L70.8951 3.42005L70.9767 3.54005L71.0123 3.60005L71.0837 3.73005L71.1448 3.87505L71.1703 3.94505L71.1907 4.02005L71.2161 4.10005L71.2365 4.17505L71.2518 4.26005L71.262 4.34005L71.2824 4.52005L71.2875 4.61005L71.2977 4.70005V7.75005V7.79005V7.83005L71.3078 7.97005L71.3129 8.00505L71.3231 8.06505L71.3333 8.09505L71.3384 8.12505L71.3537 8.18005L71.3639 8.20505L71.3945 8.27505L71.4098 8.29505L71.4199 8.31505L71.4352 8.33505L71.4658 8.37005L71.5066 8.41005L71.5168 8.41505V8.42005H71.532L71.5371 8.43005L71.5626 8.44005L71.5728 8.44505L71.5983 8.45505L71.6136 8.46505L71.6339 8.47005L71.69 8.49005L71.7511 8.51505L71.8021 8.53505L71.8225 8.54005L71.8479 8.55005L71.8734 8.56505L71.9193 8.58005L71.9549 8.59505L71.9651 8.60505L71.9804 8.61505L72.0059 8.63505L72.0161 8.64505L72.0263 8.66005L72.0365 8.67005L72.0568 8.70005L72.0721 8.73005L72.0772 8.75005L72.0823 8.76505L72.0925 8.80505V8.82505L72.0976 8.84505L72.1027 8.87005V8.89505L72.1078 8.92005V9.02505L72.0976 9.05005V9.07005L72.0925 9.09505L72.0874 9.11505L72.0772 9.13505L72.0721 9.15505L72.0619 9.17005L72.0467 9.19005L72.0212 9.22005L72.011 9.23505L71.9906 9.24505L71.9346 9.27505L71.8938 9.29505L71.8428 9.30505L71.7919 9.31005H71.7613H71.7053H71.6951H71.69L71.6747 9.30505H71.6645H71.6543L71.6034 9.29505L71.5881 9.28505H71.5728L71.5422 9.27505L71.4862 9.26005L71.425 9.24505L71.3996 9.24005L71.3792 9.23505L71.3537 9.22505L71.2467 9.19005L71.211 9.18005L71.1754 9.16505L71.0531 9.12505L71.0021 9.10505L70.9767 9.10005L70.9563 9.09005L70.9308 9.08505L70.9104 9.08005L70.89 9.07005L70.8748 9.06505L70.8391 9.05505L70.8034 9.04005L70.7881 9.03505L70.783 9.03005L70.7728 9.02505H70.7576H70.7372L70.7219 9.01505L70.7066 9.01005L70.6862 9.00505L70.676 8.99505L70.6455 8.97505L70.6302 8.96005L70.62 8.94505L70.6047 8.93005L70.5945 8.91505L70.5843 8.89505L70.569 8.87505L70.5588 8.85505L70.5538 8.83505L70.5385 8.81505L70.5283 8.79005L70.513 8.74505L70.4824 8.64005L70.4722 8.61005L70.355 8.69005L70.2429 8.76505L70.192 8.80005L70.0901 8.86005L70.0391 8.89505L69.8659 9.00505L69.8251 9.02505L69.7895 9.05005L69.6825 9.11005L69.6519 9.13005L69.5704 9.17005L69.5449 9.18005L69.499 9.20005L69.4787 9.20505L69.4481 9.22505L69.4124 9.23505L69.336 9.26005L69.1322 9.31005L69.0914 9.31505L68.9997 9.33005L68.9539 9.33505L68.908 9.34505L68.7653 9.36005L68.6634 9.37005H68.6125L68.5564 9.37505H68.5055H68.2558H68.1743L68.0928 9.37005L67.9348 9.36005L67.7819 9.34505L67.7055 9.33505L67.6291 9.32005L67.4864 9.29505L67.3488 9.26505L67.2775 9.24505L67.2113 9.22505L67.1501 9.20505L67.0839 9.18005L66.9616 9.13505L66.9005 9.10505L66.8444 9.08005L66.7884 9.05005L66.7323 9.01505L66.6763 8.98505L66.6253 8.95005L66.503 8.87005L66.3909 8.77505L66.34 8.72505L66.2941 8.67505L66.2432 8.62505L66.1209 8.46005L66.0496 8.34005L66.019 8.28005L65.9884 8.21505L65.963 8.15505L65.9375 8.09005L65.8967 7.95505L65.8661 7.81505L65.8458 7.66505L65.8356 7.51505V7.35505L65.8407 7.28005L65.8458 7.20005L65.8559 7.13005L65.8814 6.98005L65.9171 6.84005L65.9426 6.77005L65.9986 6.64005L66.0598 6.51005L66.1362 6.39005L66.2177 6.28005L66.2636 6.22505L66.3145 6.17005L66.4164 6.07005L66.4725 6.02505L66.5897 5.93505L66.6559 5.89505L66.824 5.77505L66.9463 5.71005L67.0788 5.64505L67.145 5.62005L67.2775 5.56505L67.3488 5.54005L67.5629 5.48005L67.6393 5.46505L67.7106 5.44505L67.787 5.43505L67.8635 5.42005L67.945 5.41005L68.0214 5.40505L68.1029 5.39505L68.3475 5.38005H68.5004L68.5666 5.38505H68.6379L68.7857 5.39505L68.857 5.40505L68.9335 5.41505L69.0048 5.42505L69.0863 5.43505L69.1577 5.44505L69.2341 5.46505L69.3156 5.47505L69.392 5.49005L69.5551 5.53005L69.8048 5.59005L69.8863 5.61505L70.1461 5.69005L70.3296 5.75005L70.4162 5.78005V4.77505V4.71505L70.4111 4.66005L70.406 4.61005L70.4009 4.55005L70.3907 4.50505L70.3805 4.45005L70.3601 4.40005L70.3448 4.35005L70.3296 4.30505L70.3041 4.26005L70.2837 4.21505L70.2277 4.13505L70.1971 4.09005L70.1665 4.05505L70.1308 4.01505L70.0544 3.94505L70.0137 3.91005L69.9219 3.85005L69.871 3.82005L69.7691 3.77005L69.713 3.74005L69.6774 3.72505L69.5958 3.69505L69.4226 3.64005L69.2901 3.61005L69.2392 3.60005L69.1933 3.59505L69.1424 3.58505L69.0965 3.58005L68.9437 3.56505L68.8927 3.55505H68.8418L68.7857 3.55005L68.7348 3.54505H68.6787H68.6278H68.3883L68.2609 3.55005L68.1386 3.55505L68.0214 3.56505L67.8074 3.59505L67.7055 3.61005L67.6087 3.63005L67.5221 3.65505L67.4355 3.68505L67.3539 3.71005L67.2775 3.74505L67.2062 3.78005L67.1399 3.81505L67.0788 3.86005L67.0177 3.90005L66.9667 3.95005L66.9209 4.00005L66.875 4.05505L66.8342 4.11005L66.8037 4.16505L66.7731 4.23005L66.7476 4.29505L66.7272 4.36505L66.7119 4.43505L66.7069 4.47005L66.6967 4.50005L66.6763 4.61005L66.6661 4.65505L66.661 4.68005L66.6559 4.70005L66.6508 4.71505V4.73505L66.6406 4.76505L66.6355 4.79505L66.6304 4.81505V4.82505L66.6253 4.83505V4.84005V4.84505V4.86005L66.6151 4.87505L66.5999 4.91005L66.5948 4.92005L66.5693 4.95005L66.5642 4.96005L66.5489 4.97005L66.5234 4.99505L66.5132 5.00005L66.503 5.01005L66.4878 5.01505L66.4725 5.02505L66.4266 5.04005L66.4062 5.04505L66.3757 5.05505H66.3553H66.3349L66.3196 5.06005H66.2432L66.2126 5.05505L66.1464 5.04505L66.1158 5.04005L66.0394 5.01005L65.9884 4.98005L65.968 4.96005L65.9477 4.94505L65.9069 4.90505L65.8916 4.88005L65.8661 4.83505L65.8509 4.80505L65.8458 4.77505L65.8254 4.71505L65.8203 4.68505V4.65005L65.8152 4.61005V4.52505L65.8203 4.47505V4.42505L65.8305 4.37505L65.8356 4.32505L65.8559 4.22505L65.8814 4.12505L65.8967 4.07505L65.912 4.03005L65.9528 3.93005L65.9782 3.88005L66.0241 3.78505L66.1158 3.64505L66.1464 3.60005L66.182 3.55505L66.2941 3.42005L66.3349 3.37505L66.3858 3.32005L66.4979 3.22005L66.5591 3.17505L66.6916 3.08505L66.7629 3.04505L66.8393 3.00505L66.9209 2.96505L66.9973 2.93505L67.0839 2.90005L67.1756 2.87005L67.2673 2.84505L67.4609 2.79505L67.5629 2.77505L67.7769 2.73505L68.001 2.71005L68.2354 2.69005L68.3577 2.68505H68.4851L68.6125 2.68005H68.7144L68.8163 2.68505H68.9182V2.68505ZM67.6902 6.34005L67.3438 6.46005L67.0686 6.63505L66.875 6.85505L66.7578 7.12505L66.7221 7.44505L66.7323 7.61505L66.7629 7.77005L66.8189 7.92005L66.8954 8.05505L66.9973 8.18005L67.1247 8.28005L67.2724 8.36505L67.3998 8.43005L67.5425 8.49005L67.6953 8.53505L67.8584 8.57505L68.0316 8.60005L68.215 8.61505L68.4087 8.62005L68.5819 8.61505L68.7449 8.60505L68.908 8.58505L69.0659 8.55005L69.2188 8.51505L69.3717 8.46005L69.5194 8.39505L69.6213 8.33505L69.7334 8.26005L69.8608 8.18005L69.9933 8.09005L70.1359 7.98505L70.2888 7.87505L70.4468 7.76005V6.55505L70.1716 6.47505L69.9016 6.40505L69.6315 6.35005L69.3666 6.30505L69.1067 6.27005L68.857 6.25005L68.6125 6.24505L68.1131 6.27005L67.6902 6.34005V6.34005Z" fill="white"/>
<path d="M0.494238 2.9H1.43176V2.095C1.43176 0.695 2.16548 0 3.59214 0C4.173 0 4.67233 0.115 5.04938 0.315C5.53852 0.6 5.81367 1.065 5.81367 1.605C5.81367 1.97 5.6659 2.115 5.40605 2.115C5.23281 2.115 5.05957 2 4.96786 1.8C4.85576 1.435 4.73857 1.235 4.68252 1.14C4.50929 0.94 4.15771 0.825 3.65838 0.825C2.782 0.825 2.3489 1.25 2.3489 2.115V2.89H4.03543C4.41248 2.89 4.58571 3.035 4.58571 3.285C4.58571 3.57 4.41248 3.685 4.03543 3.685H2.3489V8.925C2.3489 9.235 2.20114 9.405 1.94129 9.405C1.65086 9.405 1.53367 9.235 1.53367 8.925V3.695H0.494238C0.173238 3.695 0 3.555 0 3.3C0 3.01 0.173238 2.9 0.494238 2.9V2.9Z" fill="white"/>
<path d="M40.1505 2.77499L40.4613 2.81499L40.7467 2.87499L41.0116 2.94999L41.2562 3.03999L41.4753 3.14999L41.6689 3.27499L41.8421 3.41999L41.9899 3.57999L42.1173 3.75499L42.2243 3.94999L42.3058 4.15999L42.3618 4.38499L42.3975 4.62999L42.4077 4.88499V7.23999L42.3975 7.49999L42.3618 7.73999L42.3058 7.96999L42.2294 8.17999L42.1275 8.36999L42.0052 8.54499L41.8574 8.70499L41.6893 8.84999L41.4957 8.97499L41.2817 9.08499L41.0422 9.17999L40.7823 9.25499L40.5021 9.30999L40.1964 9.35499L39.8703 9.37999L39.5238 9.38999L39.1569 9.38499L38.8105 9.36499L38.4895 9.32499L38.1939 9.26999L37.9239 9.19499L37.6793 9.10499L37.4602 8.99499L37.2615 8.86999L37.0883 8.72499L36.9354 8.56499L36.808 8.38499L36.701 8.19499L36.6246 7.97999L36.5686 7.74999L36.5329 7.50499L36.5227 7.23999V4.88499L36.5329 4.62999L36.5686 4.38499L36.6246 4.15999L36.7061 3.94999L36.808 3.75499L36.9405 3.57999L37.0883 3.41999L37.2615 3.27499L37.4602 3.14999L37.6793 3.03999L37.9188 2.94999L38.1838 2.87499L38.4691 2.81499L38.7799 2.77499L39.1111 2.74499L39.4678 2.73999L39.8193 2.74499L40.1505 2.77499V2.77499ZM38.7901 3.57999L38.52 3.62999L38.2806 3.69499L38.0666 3.77999L37.878 3.88499L37.7201 4.00499L37.5927 4.14499L37.4908 4.30499L37.4195 4.47999L37.3736 4.67499L37.3634 4.88499V7.23999L37.3736 7.44999L37.4195 7.64499L37.4908 7.82499L37.5978 7.97999L37.7303 8.11999L37.8882 8.23999L38.0768 8.33999L38.2958 8.42499L38.5455 8.48499L38.8257 8.52999L39.1315 8.54999H39.4678H39.7938L40.0945 8.52999L40.3696 8.48999L40.6142 8.42999L40.8282 8.34999L41.0167 8.24999L41.1747 8.13499L41.3071 7.99499L41.409 7.83499L41.4804 7.65499L41.5262 7.45499L41.5415 7.23999V4.88499L41.5262 4.67499L41.4804 4.47999L41.409 4.30499L41.3071 4.14499L41.1696 4.00499L41.0116 3.88499L40.818 3.77999L40.5938 3.69499L40.3441 3.62999L40.0639 3.57999L39.748 3.55499L39.4066 3.54499L39.0856 3.55499L38.7901 3.57999V3.57999Z" fill="white"/>
<path d="M92.6722 0.09C92.7334 0.145 92.7894 0.23 92.7894 0.315C92.7894 0.46 92.6162 0.655 92.2952 0.975C90.9602 2.24 90.2877 3.785 90.2927 5.655C90.2978 7.715 91.0061 9.375 92.3818 10.66C92.6671 10.91 92.7894 11.11 92.7894 11.28C92.7894 11.365 92.7283 11.455 92.6722 11.535C92.6162 11.595 92.499 11.655 92.4124 11.655C92.0914 11.655 91.6481 11.285 91.0672 10.565C89.9361 9.205 89.4266 7.705 89.396 5.655C89.3705 3.605 90.0227 2.215 91.3067 0.78C91.7653 0.27 92.1525 0 92.4124 0C92.499 0 92.5856 0.03 92.6722 0.09V0.09Z" fill="white"/>
<path d="M76.2196 3.47C76.4488 3.185 76.6526 3.01 76.8565 2.93C77.0552 2.815 77.3456 2.76 77.6717 2.76C78.6704 2.76 79.1901 3.24 79.1901 4.185V8.83C79.1901 9.225 79.0474 9.39999 78.757 9.39999C78.4666 9.39999 78.3494 9.225 78.3494 8.83V4.48C78.3494 3.885 78.0895 3.565 77.5902 3.565C77.2131 3.565 76.8259 3.79 76.51 4.225V8.87C76.51 9.265 76.3622 9.435 76.1024 9.435C75.8425 9.435 75.6947 9.265 75.6947 8.87V4.575C75.6947 3.91 75.4094 3.6 74.8744 3.6C74.5279 3.6 74.2018 3.83 73.8554 4.265V8.875C73.8554 9.275 73.7076 9.44499 73.4172 9.44499C73.1267 9.44499 73.0146 9.275 73.0146 8.875V3.185C73.0146 2.9 73.1267 2.785 73.3611 2.785C73.4783 2.785 73.5904 2.87 73.6516 3.04C73.7076 3.115 73.7382 3.26 73.7382 3.43C74.0082 3.145 74.1815 2.975 74.2579 2.915C74.4311 2.805 74.6655 2.745 74.9916 2.745C75.4553 2.745 75.868 2.975 76.2196 3.47V3.47Z" fill="white"/>
<path d="M25.3692 2.78001L25.5934 2.80501L25.8023 2.84501L26.0061 2.89001L26.1946 2.95001L26.373 3.02001L26.5411 3.10001L26.6991 3.19001L26.8417 3.29501L26.9793 3.40501L27.1016 3.52501L27.2137 3.66001L27.3156 3.80001L27.4073 3.95501L27.4888 4.12001L27.5551 4.29501L27.6111 4.48001L27.6621 4.67501L27.6977 4.88001L27.7283 5.10001L27.7436 5.32501L27.7487 5.56001V5.62001L27.7436 5.67501L27.7385 5.72501L27.7232 5.82501L27.713 5.87001L27.6977 5.91501L27.6875 5.95501L27.6468 6.03001L27.6315 6.06001L27.5805 6.12001L27.5551 6.14501L27.5245 6.17001L27.499 6.18501L27.4633 6.20501L27.4277 6.22001L27.3563 6.24001L27.3156 6.24501L27.2697 6.25001H22.7401V6.21501H22.7299V7.13501L22.735 7.25501L22.7452 7.37501L22.7655 7.49001L22.7961 7.60001L22.8267 7.70001L22.8725 7.80001L22.9235 7.88501L22.9846 7.97501L23.056 8.05001L23.1324 8.13001L23.2139 8.19501L23.3056 8.26001L23.4075 8.31501L23.5196 8.37001L23.6317 8.41501L23.7591 8.46001L23.8916 8.49001L24.0343 8.52501L24.182 8.55001L24.34 8.56501L24.5081 8.58001L24.6813 8.59001L24.8648 8.59501H24.931L24.9973 8.59001H25.0584L25.1246 8.58501H25.1858L25.3081 8.57501L25.4253 8.56501L25.4813 8.56001L25.5424 8.55001L25.7004 8.53001L25.7513 8.52001L25.7972 8.51001L25.8482 8.50001L25.894 8.49001L25.945 8.47501L25.9908 8.46501L26.0723 8.43501L26.1182 8.42001L26.1386 8.41501L26.1641 8.40501L26.1946 8.39501L26.2201 8.38501L26.2456 8.37001L26.2762 8.36001L26.3067 8.34501L26.3424 8.33001L26.4137 8.29501L26.4851 8.25501L26.5258 8.23001L26.5666 8.21001L26.6073 8.18501L26.6991 8.13501L26.7398 8.10501L26.8366 8.04001L26.8876 8.01001L26.9436 7.97501L26.9946 7.94001L27.0608 7.88001L27.1271 7.83001L27.1525 7.80501L27.1831 7.78501L27.2086 7.76501L27.2392 7.74001L27.285 7.70501L27.3309 7.67501L27.3563 7.66001L27.3767 7.65001L27.3971 7.63501L27.4328 7.62001L27.4786 7.60501L27.5041 7.60001H27.55L27.6009 7.60501L27.6773 7.62001L27.6977 7.63001L27.7334 7.65001L27.7538 7.66501L27.7996 7.71001L27.8149 7.73001L27.8353 7.77001L27.8455 7.82001L27.8557 7.85001V7.87501L27.8608 7.90001V7.93501L27.8659 7.97001L27.8608 8.00001V8.03501L27.8557 8.06501L27.8506 8.10001L27.8149 8.20001L27.7996 8.23001L27.7691 8.30001L27.7232 8.37001L27.6977 8.40001L27.6417 8.47001L27.5805 8.53501L27.5092 8.60501L27.4277 8.67501L27.3869 8.70501L27.3462 8.74501L27.2697 8.79501L27.1933 8.85001L27.0303 8.95001L26.9436 8.99501L26.8519 9.04001L26.7602 9.08001L26.6634 9.11501L26.5615 9.15501L26.4596 9.19001L26.3526 9.22001L26.2405 9.25001L26.0163 9.30001L25.7768 9.34501L25.5221 9.37501L25.2571 9.39501L24.9769 9.40501H24.8342H24.5845L24.3451 9.39001L24.1209 9.37001L23.9018 9.33501L23.698 9.30001L23.5044 9.25501L23.3209 9.20001L23.1477 9.13501L22.9846 9.06001L22.8369 8.98001L22.6993 8.89001L22.5668 8.79001L22.4496 8.68501L22.3426 8.57001L22.2458 8.44501L22.1643 8.31501L22.093 8.17001L22.0318 8.02501L21.9809 7.86501L21.9401 7.69501L21.9095 7.52001L21.8943 7.33501L21.8892 7.14001V4.78501L21.8943 4.71501L21.8994 4.65501L21.9299 4.46001L21.9452 4.39501L21.9605 4.33501L21.986 4.27501L22.0267 4.15501L22.0573 4.09501L22.1134 3.98001L22.149 3.92501L22.1847 3.86501L22.2204 3.81501L22.2611 3.76001L22.307 3.71001L22.3528 3.65501L22.4445 3.55501L22.4955 3.50501L22.5668 3.44001L22.7146 3.32001L22.8776 3.21001L22.9643 3.16001L23.1477 3.07001L23.3413 2.99001L23.4432 2.95501L23.6572 2.89501L23.8814 2.84501L23.9986 2.82501L24.1158 2.81001L24.2381 2.79001L24.3604 2.78001L24.4928 2.77001L24.7578 2.76001H24.8903L25.1348 2.76501L25.3692 2.78001V2.78001ZM24.3298 3.58001L24.126 3.61501L23.9222 3.66501L23.7285 3.73001L23.5451 3.80501L23.3668 3.89501L23.1935 4.02001L23.0509 4.15001L22.9337 4.29001L22.8471 4.44001L22.7808 4.59501L22.7401 4.75501L22.7299 4.93001V5.41001H26.8978L26.857 4.92001L26.7245 4.50501L26.5105 4.16001L26.2048 3.89501L25.8125 3.70501L25.3335 3.59001L24.768 3.55501L24.5438 3.56001L24.3298 3.58001V3.58001Z" fill="white"/>
<path d="M34.3113 0.879995C34.8921 1.31 35.1928 1.91499 35.1928 2.65499C35.1928 2.99499 35.045 3.165 34.7546 3.165C34.5508 3.165 34.4081 2.99499 34.3215 2.65499C34.2603 2.36999 34.1482 2.115 34.0056 1.845C33.7406 1.395 33.1852 1.185 32.314 1.185C31.5497 1.185 31.03 1.355 30.714 1.725C30.4236 2.065 30.2453 2.585 30.2453 3.355V6.33C30.2453 7.105 30.4236 7.645 30.7395 7.985C31.086 8.355 31.621 8.55 32.3751 8.55C33.5113 8.55 34.1788 8.155 34.3215 7.38C34.3775 7.095 34.4081 6.95 34.4081 6.925C34.4641 6.755 34.5813 6.67 34.7546 6.67C35.045 6.67 35.1928 6.84 35.1928 7.18C35.1928 7.9 34.8972 8.44 34.2807 8.87C33.7916 9.18 33.17 9.35 32.3598 9.35C31.4274 9.35 30.7039 9.15 30.1689 8.725C29.5523 8.325 29.2925 7.645 29.2925 6.755V3.17499C29.2925 1.28999 30.2759 0.369995 32.3241 0.369995C33.1445 0.369995 33.7814 0.539995 34.3113 0.879995V0.879995Z" fill="white"/>
<path d="M80.9072 2.71496L80.9684 2.73496L80.9837 2.74496L80.9989 2.74996L81.0142 2.76496L81.0448 2.78496L81.0601 2.79996L81.0754 2.80996L81.1263 2.87996L81.1569 2.91996L81.1671 2.94496L81.1773 2.96496L81.1824 2.98496L81.1926 3.02996L81.1977 3.04996L81.2078 3.06996L81.2129 3.09496L81.218 3.11496L81.2282 3.13496L81.2333 3.15996L81.2588 3.21996L81.269 3.24496L81.2843 3.28496L81.2894 3.30996L81.3047 3.36996L81.3148 3.38996L81.325 3.42996L81.4524 3.36996L81.7021 3.25496L81.8244 3.19996L81.9416 3.14996L82.1759 3.05996L82.288 3.01996L82.395 2.97996L82.502 2.94496L82.6039 2.91496L82.7058 2.87996L82.8077 2.85496L83.0014 2.80996L83.0982 2.78996L83.2714 2.75996L83.358 2.74996L83.5211 2.73996H83.6026L83.837 2.74496L84.0612 2.75996L84.2803 2.77996L84.479 2.80996L84.6726 2.85496L84.856 2.90496L85.0242 2.96496L85.1821 3.03496L85.3299 3.10996L85.4675 3.19496L85.5948 3.29496L85.7069 3.39496L85.8139 3.50996L85.9057 3.62996L85.9872 3.75996L86.0585 3.89996L86.1197 4.04996L86.1655 4.20496L86.2063 4.36996L86.2368 4.54496L86.2521 4.72496L86.2572 4.91496V7.29496L86.2521 7.38996L86.247 7.47996L86.2419 7.56496L86.2266 7.65496L86.2165 7.73996L86.1757 7.89996L86.1502 7.97996L86.1247 8.05496L86.0636 8.20496L86.0228 8.27496L85.9872 8.34496L85.9413 8.41496L85.8955 8.47996L85.8496 8.53996L85.7986 8.60496L85.7426 8.66496L85.6815 8.72496L85.6254 8.78496L85.4929 8.89496L85.3707 8.98496L85.2382 9.06496L85.1668 9.09996L85.1006 9.13496L85.0242 9.16996L84.9477 9.19996L84.8713 9.22496L84.7083 9.27996L84.5401 9.31996L84.4535 9.33996L84.2701 9.36996L84.0867 9.38996L83.9898 9.39996L83.8879 9.40496H83.7911H83.5669L83.4447 9.39996L83.3224 9.38996L83.2052 9.38496L82.9708 9.35496L82.8587 9.33496L82.6345 9.28996L82.5275 9.25996L82.4205 9.23496L82.3135 9.19996L82.2065 9.15996L82.0027 9.07996L81.9008 9.02996L81.804 8.97996L81.7021 8.92996L81.6053 8.87496L81.5085 8.81496L81.325 8.68496V11.43L81.3148 11.53L81.3097 11.575L81.2996 11.62L81.269 11.74L81.2537 11.775L81.2333 11.81L81.218 11.835L81.1977 11.865L81.1569 11.915L81.1059 11.955L81.0754 11.965L81.0499 11.98L81.0193 11.99L80.9887 11.995L80.9531 12H80.8818H80.8512L80.8155 11.99L80.79 11.98L80.7595 11.97L80.7034 11.94L80.683 11.92L80.6576 11.9L80.6168 11.85L80.5964 11.82L80.5811 11.79L80.5709 11.755L80.5557 11.715L80.5353 11.635L80.5251 11.585L80.52 11.54L80.5149 11.485V11.435V3.27996V3.22996L80.52 3.18496L80.5251 3.13496L80.5302 3.08996L80.5353 3.04996L80.5455 3.00996L80.5607 2.97496L80.5709 2.93496L80.5964 2.87496L80.6168 2.84496L80.6321 2.81996L80.6525 2.79496L80.6728 2.77996L80.6983 2.75996L80.7187 2.74496L80.7442 2.72996L80.8002 2.71496L80.8308 2.70996H80.8766L80.8919 2.71496H80.9072V2.71496ZM83.195 3.58496L82.9606 3.60496L82.8485 3.61996L82.7415 3.63496L82.6345 3.65996L82.4409 3.70996L82.2575 3.77996L82.181 3.81496L82.0995 3.85496L82.0231 3.90496L81.9365 3.95996L81.8549 4.01996L81.7683 4.08996L81.6817 4.16496L81.59 4.24496L81.4983 4.33496L81.3964 4.42996L81.2945 4.52996V7.79996H81.325V7.78496L81.5645 7.92496L81.7938 8.04996L82.0231 8.16996L82.2371 8.26496L82.446 8.35496L82.6498 8.42496L82.8434 8.48496L83.0268 8.52996L83.2052 8.56496L83.3784 8.58496L83.5415 8.59496L83.6841 8.58996L83.8217 8.58496L83.9542 8.56996L84.0765 8.55496L84.2038 8.53496L84.321 8.50996L84.4331 8.47996L84.5401 8.44496L84.642 8.40496L84.7388 8.35996L84.8255 8.30996L84.9325 8.24496L85.0242 8.16996L85.1108 8.09496L85.1821 8.01496L85.2433 7.92996L85.2942 7.83496L85.335 7.73996L85.3656 7.63996L85.391 7.52996L85.4012 7.41996L85.4063 7.30496V4.92996L85.4012 4.78996L85.3859 4.65996L85.3605 4.54496L85.3248 4.42996L85.2789 4.32496L85.2229 4.22496L85.1516 4.13496L85.0751 4.04996L84.9834 3.97496L84.8815 3.89996L84.7694 3.83996L84.6777 3.79496L84.5809 3.74996L84.479 3.71996L84.372 3.68496L84.2599 3.65996L84.1376 3.63496L84.0153 3.61496L83.8828 3.59996L83.7453 3.58996L83.6026 3.58496L83.4548 3.57996L83.3275 3.58496H83.195V3.58496Z" fill="white"/>
</g>
<defs>
<clipPath id="clip0_111_347">
<rect width="107" height="12" fill="white"/>
</clipPath>
</defs>
</svg>
