<svg width="22" height="18" viewBox="0 0 22 18" fill="none" xmlns="http://www.w3.org/2000/svg">
<path d="M20.9668 3.75V14.25C20.9668 14.8467 20.7297 15.419 20.3078 15.841C19.8858 16.2629 19.3135 16.5 18.7168 16.5H3.7168C3.12006 16.5 2.54776 16.2629 2.12581 15.841C1.70385 15.419 1.4668 14.8467 1.4668 14.25V3.75M20.9668 3.75C20.9668 3.15326 20.7297 2.58097 20.3078 2.15901C19.8858 1.73705 19.3135 1.5 18.7168 1.5H3.7168C3.12006 1.5 2.54776 1.73705 2.12581 2.15901C1.70385 2.58097 1.4668 3.15326 1.4668 3.75M20.9668 3.75V3.993C20.9668 4.37715 20.8685 4.75491 20.6812 5.0903C20.4939 5.42569 20.2239 5.70754 19.8968 5.909L12.3968 10.524C12.042 10.7425 11.6335 10.8582 11.2168 10.8582C10.8001 10.8582 10.3916 10.7425 10.0368 10.524L2.5368 5.91C2.20972 5.70854 1.93967 5.42669 1.75237 5.0913C1.56507 4.75591 1.46675 4.37815 1.4668 3.994V3.75" stroke="black" stroke-width="1.5" stroke-linecap="round" stroke-linejoin="round"/>
</svg>
